<svg width="94" height="52" viewBox="0 0 94 52" fill="none" xmlns="http://www.w3.org/2000/svg">
<path d="M1.517 27V1.1H5.587V23.3H12.284V27H1.517ZM20.1558 27.37C16.1598 27.37 14.0878 25.002 14.0878 20.858V1.1H18.1577V21.154C18.1577 23.004 18.9348 23.67 20.2298 23.67C21.5248 23.67 22.3018 23.004 22.3018 21.154V1.1H26.2238V20.858C26.2238 25.002 24.1518 27.37 20.1558 27.37ZM34.8575 27.37C30.9355 27.37 28.8635 25.002 28.8635 21.006V7.094C28.8635 3.098 30.9355 0.729999 34.8575 0.729999C38.7795 0.729999 40.8515 3.098 40.8515 7.094V9.832H37.0035V6.835C37.0035 5.133 36.1895 4.43 34.9685 4.43C33.7475 4.43 32.9335 5.133 32.9335 6.835V21.302C32.9335 23.004 33.7475 23.67 34.9685 23.67C36.1895 23.67 37.0035 23.004 37.0035 21.302V17.343H40.8515V21.006C40.8515 25.002 38.7795 27.37 34.8575 27.37ZM43.2865 27V1.1H47.3565V27H43.2865ZM49.3317 27L53.5497 1.1H59.0627L63.2807 27H59.2107L58.4707 21.857V21.931H53.8457L53.1057 27H49.3317ZM54.3267 18.416H57.9897L56.1767 5.614H56.1027L54.3267 18.416ZM65.2553 27V1.1H70.3613L74.3203 16.603H74.3943V1.1H78.0203V27H73.8393L68.9553 8.093H68.8813V27H65.2553ZM86.9283 27.37C82.9323 27.37 80.7493 25.002 80.7493 20.858V7.242C80.7493 3.098 82.9323 0.729999 86.9283 0.729999C90.9243 0.729999 93.1073 3.098 93.1073 7.242V20.858C93.1073 25.002 90.9243 27.37 86.9283 27.37ZM86.9283 23.67C88.2233 23.67 89.0373 22.967 89.0373 21.117V6.983C89.0373 5.133 88.2233 4.43 86.9283 4.43C85.6333 4.43 84.8193 5.133 84.8193 6.983V21.117C84.8193 22.967 85.6333 23.67 86.9283 23.67ZM0.984 51V34.2H4.296L6.864 44.256H6.912V34.2H9.264V51H6.552L3.384 38.736H3.336V51H0.984ZM10.5302 51L13.2662 34.2H16.8422L19.5782 51H16.9382L16.4582 47.664V47.712H13.4582L12.9782 51H10.5302ZM13.7702 45.432H16.1462L14.9702 37.128H14.9222L13.7702 45.432ZM24.2207 51.24C21.6287 51.24 20.3327 49.704 20.3327 47.016V46.056H22.8287V47.208C22.8287 48.408 23.3567 48.84 24.1967 48.84C25.0367 48.84 25.5647 48.408 25.5647 47.16C25.5647 45.768 25.0367 44.88 23.3087 43.368C21.1007 41.424 20.3807 40.056 20.3807 38.136C20.3807 35.496 21.7487 33.96 24.3167 33.96C26.8847 33.96 28.1567 35.496 28.1567 38.184V38.88H25.6607V38.016C25.6607 36.816 25.1807 36.36 24.3407 36.36C23.5007 36.36 23.0207 36.816 23.0207 37.968C23.0207 39.192 23.5727 40.08 25.3007 41.592C27.5087 43.536 28.2047 44.88 28.2047 46.968C28.2047 49.704 26.8127 51.24 24.2207 51.24ZM33.4384 51.24C30.8944 51.24 29.5504 49.704 29.5504 47.112V38.088C29.5504 35.496 30.8944 33.96 33.4384 33.96C35.9824 33.96 37.3264 35.496 37.3264 38.088V39.864H34.8304V37.92C34.8304 36.816 34.3024 36.36 33.5104 36.36C32.7184 36.36 32.1904 36.816 32.1904 37.92V47.304C32.1904 48.408 32.7184 48.84 33.5104 48.84C34.3024 48.84 34.8304 48.408 34.8304 47.304V44.736H37.3264V47.112C37.3264 49.704 35.9824 51.24 33.4384 51.24ZM38.9059 51V34.2H41.5459V51H38.9059ZM43.5231 51V34.2H47.2911L48.9711 46.224H49.0191L50.6991 34.2H54.4671V51H51.9711V38.28H51.9231L50.0031 51H47.7951L45.8751 38.28H45.8271V51H43.5231ZM56.4371 51V34.2H63.6371V36.6H59.0771V41.04H62.7011V43.44H59.0771V48.6H63.6371V51H56.4371ZM65.1559 51V34.2H68.4679L71.0359 44.256H71.0839V34.2H73.4359V51H70.7239L67.5559 38.736H67.5079V51H65.1559ZM77.4621 51V36.6H74.7021V34.2H82.8621V36.6H80.1021V51H77.4621ZM87.8625 51.24C85.2705 51.24 83.8545 49.704 83.8545 47.016V38.184C83.8545 35.496 85.2705 33.96 87.8625 33.96C90.4545 33.96 91.8705 35.496 91.8705 38.184V47.016C91.8705 49.704 90.4545 51.24 87.8625 51.24ZM87.8625 48.84C88.7025 48.84 89.2305 48.384 89.2305 47.184V38.016C89.2305 36.816 88.7025 36.36 87.8625 36.36C87.0225 36.36 86.4945 36.816 86.4945 38.016V47.184C86.4945 48.384 87.0225 48.84 87.8625 48.84Z" fill="#F4F4F5"/>
</svg>
